<!DOCTYPE svg PUBLIC "-//W3C//DTD SVG 1.1//EN" "http://www.w3.org/Graphics/SVG/1.1/DTD/svg11.dtd">

<!-- Uploaded to: SVG Repo, www.svgrepo.com, Transformed by: SVG Repo Mixer Tools -->
<svg fill="#ffffff" xmlns="http://www.w3.org/2000/svg" width="24px" height="24px" viewBox="0 0 52 52" enable-background="new 0 0 52 52" xml:space="preserve">

<g id="SVGRepo_bgCarrier" stroke-width="0"/>

<g id="SVGRepo_tracerCarrier" stroke-linecap="round" stroke-linejoin="round"/>

<g id="SVGRepo_iconCarrier"> <path d="M12.1,2.7h26.5c0.9,0,1.6,0.7,1.6,1.6c0,0.5-0.2,0.9-0.5,1.2l-7.2,7.2c4.4,3.9,16.7,17.5,2.3,34.9l-0.2,0.2 c0,0.1-0.1,0.1-0.2,0.2c-0.3,0.4-0.8,0.7-1.4,0.7c-0.9,0-1.6-0.7-1.6-1.6c0-0.1,0-0.1,0-0.2c0,0,0,0,0,0c0,0,0,0,0-0.1 c0-0.1,0-0.2,0.1-0.2c0.5-2.2,3.6-17.2-9.6-23.4l-8.7,8.7c-0.3,0.3-0.7,0.5-1.1,0.5c-0.9,0-1.6-0.7-1.6-1.6V4.4 C10.4,3.5,11.2,2.7,12.1,2.7z"/> </g>

</svg>